<?xml version="1.0" standalone="no"?><svg xmlns="http://www.w3.org/2000/svg" viewBox="0 0 1440 320"><path fill="#1a2b32" fill-opacity="1" d="M0,320L34.3,309.3C68.6,299,137,277,206,250.7C274.3,224,343,192,411,181.3C480,171,549,181,617,197.3C685.7,213,754,235,823,229.3C891.4,224,960,192,1029,197.3C1097.1,203,1166,245,1234,266.7C1302.9,288,1371,288,1406,288L1440,288L1440,0L1405.7,0C1371.4,0,1303,0,1234,0C1165.7,0,1097,0,1029,0C960,0,891,0,823,0C754.3,0,686,0,617,0C548.6,0,480,0,411,0C342.9,0,274,0,206,0C137.1,0,69,0,34,0L0,0Z"></path></svg>