<?xml version="1.0" standalone="no"?><svg xmlns="http://www.w3.org/2000/svg" viewBox="0 0 1440 320"><path fill="#1a2b32" fill-opacity="1" d="M0,128L24,144C48,160,96,192,144,197.3C192,203,240,181,288,165.3C336,149,384,139,432,165.3C480,192,528,256,576,288C624,320,672,320,720,304C768,288,816,256,864,250.7C912,245,960,267,1008,282.7C1056,299,1104,309,1152,282.7C1200,256,1248,192,1296,181.3C1344,171,1392,213,1416,234.7L1440,256L1440,0L1416,0C1392,0,1344,0,1296,0C1248,0,1200,0,1152,0C1104,0,1056,0,1008,0C960,0,912,0,864,0C816,0,768,0,720,0C672,0,624,0,576,0C528,0,480,0,432,0C384,0,336,0,288,0C240,0,192,0,144,0C96,0,48,0,24,0L0,0Z"></path></svg>